<svg xmlns="http://www.w3.org/2000/svg" width="813" height="186" viewBox="0 0 813 186">
  <g id="Artboard" fill="none" fill-rule="evenodd">
    <path id="Shape" fill="#000" fill-rule="nonzero" d="M269.080702 76.0374923L269.080702 44.8339064 281 38 281 128.201449C273.300195 132.451619 265.738986 136.518328 258.270175 140.737921 253.542495 143.428676 248.922612 146.31818 244.287329 149.161819 242.326602 150.377733 239.812542 150.262069 237.973489 148.87134 234.539376 146.807409 231.120663 144.758766 227.701949 142.755988 224.976218 141.089554 222.327485 139.285525 219.524756 137.72611 213.780702 134.530839 207.959649 131.473162 202 128.277891L202 82.6726497 241.530799 60.4433435 269.080702 76.0374923zM213.8577 121.596868C216.491033 123.125706 218.862573 124.654544 221.280312 125.969345 226.747173 129.13404 232.229435 132.298735 237.727096 135.417565 239.821442 136.610058 241.88499 137.512073 244.395127 136.044388 250.554971 132.421042 256.714815 128.981156 262.951657 125.342521 265.046004 124.134739 267.063353 122.774073 269.111501 121.505138L269.111501 89.2772304C260.410721 84.2932181 251.602144 79.156322 242.654971 74.2028866 241.404491 73.8319541 240.055058 73.992495 238.928265 74.6462496 234.108187 77.3675815 229.395906 80.3029506 224.652827 83.1465895L213.873099 89.582998 213.8577 121.596868zM115 83.568977L154.322801 61 194 83.8449563 194 129.1209C186.295689 133.413912 178.745465 137.614931 171.226058 141.938607 166.993824 144.381535 162.823223 146.936899 158.714258 149.6047 155.632534 151.64388 152.689487 151.42923 149.053052 149.083405 144.784864 146.30828 140.300956 143.870462 135.940316 141.248659 130.793837 138.182222 125.708992 134.993127 120.531695 132.049347 118.744771 131.136177 116.908325 130.322322 115.030817 129.61153L115 83.568977zM154.723425 74.89096C154.195494 74.952904 153.67768 75.0817152 153.182563 75.2742647 145.878877 79.4446191 138.528964 83.5383126 131.456407 87.8773211 128.590404 89.6098581 125.493271 90.9437582 125.801443 95.6967357 126.325336 103.362828 126.032573 111.151579 125.909304 118.879 125.665099 121.405967 127.146995 123.784063 129.53033 124.689898 134.152916 127.035723 138.482738 130.010167 142.997464 132.601306 146.680125 134.717148 150.455237 136.649003 154.261166 138.73418L181.996684 123.003358 181.996684 90.6524467 154.723425 74.89096zM590.322801 151L551 128.25 551 82.6424713 590.322801 60 630 82.9036124 630 128.142471 590.322801 151zM590.800468 73.9172856C590.175746 73.9556448 589.561544 74.0957505 588.982251 74.3320392 581.863468 78.4334909 574.652233 82.3966914 567.733762 86.8207292 565.422469 88.3568535 561.847669 88.9559419 561.924712 93.1034774 562.094207 101.736496 561.924712 110.384875 562.047981 119.033255 562.080117 120.366136 562.632992 121.633839 563.588843 122.56634 565.501615 123.895814 567.504384 125.091727 569.582797 126.14551 574.837137 129.217758 580.16852 132.290007 585.314999 135.561951 588.002869 137.548158 591.651584 137.640324 594.436903 135.79237 597.518627 133.81077 600.677394 132.028866 603.836161 130.216239 608.5512 127.481938 613.281646 124.79372 618.089136 122.044058L618.089136 89.785449 590.800468 73.9172856z"/>
    <path id="Path" fill="#000" d="M378 96.9324726L378 83.7403359C381.307768 81.7036551 384.785561 79.4972509 388.325181 77.3988526 393.580513 74.3129727 398.866758 71.2270927 404.16846 68.1412128 408.249071 65.8113734 412.329681 63.5123929 416.533946 61.3059887 417.432523 60.8980038 418.463975 60.8980038 419.362551 61.3059887 427.863823 66.2896848 436.272354 71.3968161 444.727255 76.411371 447.354921 77.954311 450.106241 79.3583863 452.764821 80.8704675 454.00137 81.5802199 455.176091 82.4134075 456.489924 83.2311657 453.151242 85.4529992 450.152612 87.5513976 447.045784 89.4029255 446.253924 89.7803177 445.333632 89.7803177 444.541773 89.4029255 438.35903 85.8850224 432.377226 82.2436841 426.318137 78.6023458 424.153442 77.2106607 421.913994 75.9384004 419.609861 74.791284 418.500035 74.3133351 417.241894 74.3133351 416.132068 74.791284 409.593817 78.49434 403.194678 82.3979781 396.702798 86.178181 394.600665 87.412533 392.390335 88.4463028 389.36079 90.0046721L457 129.041053 417.770495 152 378.324594 129.164488 389.716298 122.684141 417.677754 138.530134 434.031109 129.272494 378 96.9324726zM330.091801 104.567728L318.968615 97.8495191 346.019223 81.6675317C341.306787 78.8759471 337.405257 76.6978976 333.656728 74.3204492 330.489604 72.2957835 327.750883 73.783606 325.149863 75.2407518 319.733621 78.3084272 314.43978 81.560163 309.100039 84.5818232 304.708905 87.0206251 301.327579 89.5207805 301.908984 95.6101161 302.360385 102.53056 302.360385 109.473173 301.908984 116.393617 301.665793 118.918201 302.915821 121.352557 305.106709 122.620998 309.941546 125.550627 315.036485 128.035445 319.932523 130.827029 322.808945 132.468235 325.532366 134.400871 328.362887 136.134107 328.895148 136.390247 329.4623 136.565987 330.0459 136.655612 333.519027 134.676962 336.793252 132.851695 340.021577 130.949736 345.085916 127.974091 350.089055 124.814385 355.229894 121.976786 356.330766 121.303281 357.663485 121.125141 358.901922 121.485958 362.099647 123.142502 365.021969 125.228522 368.846999 127.621308L330 150 291 127.391233 291 81.8055771C295.911338 79.075346 300.868576 76.3757917 305.764614 73.5688687 310.660651 70.7619458 315.480188 67.8323159 320.330326 64.9640394 322.610043 63.6142623 324.920361 62.3565154 327.200078 60.9147079 329.693998 59.3041784 331.943115 60.0557588 334.192232 61.3595209 339.730875 64.5601288 345.259317 67.7863007 350.77756 71.0380366L369 81.7749003 330.091801 104.567728zM26 127.504379L26 81.9491077C32.9638062 78.0377965 40.0198482 74.1725008 46.999027 70.1384818 51.8875268 67.3162023 56.6991633 64.3405381 61.4646818 61.2881815 64.3393656 59.4475645 67.3216579 59.6009492 70.5499124 61.6102895 75.8381008 64.8927232 81.3107608 67.9297413 86.5989492 71.1048057 91.4567036 73.9731006 96.2837128 76.8720724 101.141467 79.7403673 102.109944 80.3078909 103.13991 80.7527067 105 81.7036921L93.4551469 88.3759289C89.8272037 86.3972656 86.3222417 84.5566485 82.8172796 82.6393391 78.0056431 79.893752 73.347733 76.8567339 68.4131154 74.341224 66.7386891 73.564441 64.8141814 73.5254798 63.1095544 74.2338547 57.9136019 76.9487648 52.9789842 80.2005216 47.8752676 83.1455088 44.8007394 84.9247719 41.5878576 86.5199734 38.1443861 88.3452519L38.1443861 121.184928C40.7269897 122.718775 43.7861452 124.421346 46.7838101 126.231286 52.3179607 129.544397 57.7752481 132.964877 63.3555166 136.185956 64.4137634 136.760769 65.6696037 136.850273 66.7989881 136.431372 70.8419926 134.360678 74.762016 132.059907 78.6820393 129.728458 83.1554777 127.074902 87.5366803 124.252623 92.040864 121.614405 92.8389618 121.23828 93.7638793 121.23828 94.561977 121.614405 97.7902316 123.485699 100.92625 125.525716 104.400467 127.749795 101.464293 129.60575 98.7433353 131.385014 95.9455147 133.072246 88.7716157 137.438599 81.5362262 141.779387 74.2393462 146.094611 72.2537951 147.520658 70.120062 148.729143 67.875073 149.699153 66.2158156 150.205837 64.4260177 150.068888 62.8635921 149.315691 55.5000973 145.20498 48.2903289 140.818176 41.0498151 136.508064 35.9307258 133.517062 30.9807356 130.464705 26 127.504379zM544 84.3315448L533.024044 91.2535211 517.11352 82.1722558 517.11352 146.261793 505.24596 153 505.24596 75.0052537 492.302326 82.493852C487.967284 84.9900514 483.67836 87.5781355 479.235711 89.8752515 477.955507 90.4263312 476.503697 90.4263312 475.223492 89.8752515 472.30272 88.4204114 469.58179 86.5367762 466 84.3468589L505.076862 61.6972949 505.076862 16 516.944423 22.7535211 516.944423 68.6958417 544 84.3315448zM651.311456 88.0992801L651.311456 120.428428 678.793083 136.455885 706.382 120.672192 717.739438 127.147162 679.007664 150 640 127.360455 640 81.4414867 678.885046 59 718 81.4110162 706.489291 88.0535744C697.400275 82.8583626 688.464531 77.7697974 679.053645 72.4222334L651.311456 88.0992801zM777 72.1603311C771.368132 75.5734077 766.010989 78.8788647 760.608059 82.0920764 758.043956 83.6294982 755.250916 84.7979388 752.824176 86.5198513 751.414439 87.4204993 750.415806 88.8465052 750.046398 90.4863997 749.786935 99.8185504 749.81746 109.166075 749.954823 118.498226 750.023399 119.906905 750.690698 121.217662 751.786325 122.095793 758.715507 126.108464 765.812576 129.782903 772.833333 133.749451 774.276945 134.641454 775.668155 135.616782 777 136.670552L777 150 738.370574 127.18466 727 133.503463 727 59.3074844 737.790598 66.1490117 737.790598 81.7077209 777 59 777 72.1603311z"/>
  </g>
</svg>
