<svg xmlns="http://www.w3.org/2000/svg" viewBox="0 0 446.57 224.48"><defs><style>.cls-1{fill:#fff}</style></defs><g id="Layer_2" data-name="Layer 2"><g id="Layer_1-2" data-name="Layer 1"><path class="cls-1" d="M100 110.7c0-24.53-20.62-45.24-45-45.24a43.79 43.79 0 0 0-28.9 11.25L21.24 81v59.2s13 15.74 33.78 15.74A45.17 45.17 0 0 0 100 110.7zM35.6 87.47A29.63 29.63 0 0 1 55 79.82c16.61 0 30.64 14.14 30.64 30.88A30.79 30.79 0 0 1 55 141.56c-9.45 0-15.05-3.46-19.42-7.57z"/><path class="cls-1" d="M55 44.23c-21.5 0-43.74 11.66-54.09 28.38L0 74.11v150.37h14.36V78.33c8.26-11.54 25-19.74 40.66-19.74A52.11 52.11 0 1 1 55 162.8c-20.29 0-34-12.75-34-12.75v74.43h14.37v-50.19A70.72 70.72 0 0 0 55 177.17c37.27 0 66.47-29.2 66.47-66.47S92.29 44.23 55 44.23zM410.96 0h14.36v174.86h-14.36zM432.2 0h14.36v174.86H432.2zM279.2 174.85l48.17-64.17-48.1-64.16h-18.05l48.18 64.16-48.18 64.17h17.98z"/><path class="cls-1" d="M305.9 46.52h-17.93l43.63 58.49 4.52 5.67-4.52 5.68-43.68 58.49h17.98l48.18-64.17-48.18-64.16zM358.31 105.01l.03.04 43.96-58.53h-18.05l-34.87 46.51 8.93 11.98zM345.11 87.32l30.44-40.8h-17.94l-21.54 28.69 9.04 12.11zM358.31 116.36l-8.93 11.95 34.93 46.54h17.99l-43.96-58.53-.03.04zM336.06 146.14l21.55 28.71h17.99l-30.49-40.82-9.05 12.11zM231.15 166.09a9.5 9.5 0 0 0 .17-1.53v-14.11a53.31 53.31 0 0 1-34.7 12.35c-28 0-52.11-23.38-52.11-52.1V46.52h-14.36v64.18a66.55 66.55 0 0 0 84 64.14c-4.43 9.21-14.83 19.45-21.07 23.64l10.26 10.45c14.41-9.58 26.07-26.76 27.81-42.84z"/><path class="cls-1" d="M196.62 155.93c24.2 0 34.7-15.5 34.7-15.5V46.52H217v87.25c-5 4.24-11.08 7.79-20.33 7.79a31.27 31.27 0 0 1-30.87-30.86V46.52h-14.41v64.18c0 24.51 21.02 45.23 45.23 45.23z"/><path class="cls-1" d="M238.19 46.52v117c-.63 19.09-13.19 39.17-29.84 50.54l10.27 10.46c16.23-11.82 28.59-30.19 32.57-49.49a51.58 51.58 0 0 0 1.36-11.62V46.52z"/></g></g></svg>